o SciFiPlatform
v -0.5000 -0.5000 -0.5000
v 0.5000 -0.5000 -0.5000
v 0.5000 -0.3000 -0.5000
v -0.5000 -0.3000 -0.5000
v -0.5000 -0.5000 0.5000
v 0.5000 -0.5000 0.5000
v 0.5000 -0.3000 0.5000
v -0.5000 -0.3000 0.5000
v -0.4750 -0.3000 -0.4750
v 0.4750 -0.3000 -0.4750
v 0.4750 0.3000 -0.4750
v -0.4750 0.3000 -0.4750
v -0.4750 -0.3000 0.4750
v 0.4750 -0.3000 0.4750
v 0.4750 0.3000 0.4750
v -0.4750 0.3000 0.4750
v -0.5000 0.3000 -0.5000
v 0.5000 0.3000 -0.5000
v 0.5000 0.5000 -0.5000
v -0.5000 0.5000 -0.5000
v -0.5000 0.3000 0.5000
v 0.5000 0.3000 0.5000
v 0.5000 0.5000 0.5000
v -0.5000 0.5000 0.5000
f 1 2 3 4
f 8 7 6 5
f 4 3 7 8
f 5 6 2 1
f 5 1 4 8
f 2 6 7 3
f 9 10 11 12
f 16 15 14 13
f 12 11 15 16
f 13 14 10 9
f 13 9 12 16
f 10 14 15 11
f 17 18 19 20
f 24 23 22 21
f 20 19 23 24
f 21 22 18 17
f 21 17 20 24
f 18 22 23 19
